# MagicaVoxel @ Ephtracy

# group
o 

# material
mtllib 긴총알.mtl
usemtl palette

# normals
vn -1 0 0
vn 1 0 0
vn 0 0 1
vn 0 0 -1
vn 0 -1 0
vn 0 1 0

# texcoords
vt 0.814453 0.5
vt 0.818359 0.5
vt 0.845703 0.5
vt 0.849609 0.5
vt 0.857422 0.5

# verts
v -0.4 0 1.6
v -0.4 0 -1.6
v -0.4 0.1 1.6
v -0.4 0.1 -1.6
v -0.2 0 1.8
v -0.2 0 1.6
v -0.2 0 -1.6
v -0.2 0 -1.8
v -0.2 0.1 1.8
v -0.2 0.1 1.6
v -0.2 0.1 -1.6
v -0.2 0.1 -1.8
v 0.2 0 1.8
v 0.2 0 1.6
v 0.2 0 -1.6
v 0.2 0 -1.8
v 0.2 0.1 1.8
v 0.2 0.1 1.6
v 0.2 0.1 -1.6
v 0.2 0.1 -1.8
v 0.4 0 1.6
v 0.4 0 -1.6
v 0.4 0.1 1.6
v 0.4 0.1 -1.6
v -0.2 0 1.8
v -0.2 0.1 1.8
v 0.2 0 1.8
v 0.2 0.1 1.8
v -0.4 0 1.6
v -0.4 0.1 1.6
v -0.2 0 1.6
v -0.2 0.1 1.6
v 0.2 0 1.6
v 0.2 0.1 1.6
v 0.4 0 1.6
v 0.4 0.1 1.6
v -0.4 0 -1.6
v -0.4 0.1 -1.6
v -0.2 0 -1.6
v -0.2 0.1 -1.6
v 0.2 0 -1.6
v 0.2 0.1 -1.6
v 0.4 0 -1.6
v 0.4 0.1 -1.6
v -0.2 0 -1.8
v -0.2 0.1 -1.8
v 0.2 0 -1.8
v 0.2 0.1 -1.8
v -0.2 0 1.8
v 0.2 0 1.8
v -0.4 0 1.6
v -0.2 0 1.6
v 0.2 0 1.6
v 0.4 0 1.6
v -0.2 0 1
v 0.2 0 1
v -0.2 0 0.5
v 0.2 0 0.5
v -0.2 0 0.3
v 0.2 0 0.3
v -0.2 0 -0.3
v 0.2 0 -0.3
v -0.2 0 -0.5
v 0.2 0 -0.5
v -0.2 0 -1
v 0.2 0 -1
v -0.4 0 -1.6
v -0.2 0 -1.6
v 0.2 0 -1.6
v 0.4 0 -1.6
v -0.2 0 -1.8
v 0.2 0 -1.8
v -0.2 0.1 1.8
v 0.2 0.1 1.8
v -0.4 0.1 1.6
v -0.2 0.1 1.6
v 0.2 0.1 1.6
v 0.4 0.1 1.6
v -0.2 0.1 1
v 0.2 0.1 1
v -0.2 0.1 0.5
v 0.2 0.1 0.5
v -0.2 0.1 0.3
v 0.2 0.1 0.3
v -0.2 0.1 -0.3
v 0.2 0.1 -0.3
v -0.2 0.1 -0.5
v 0.2 0.1 -0.5
v -0.2 0.1 -1
v 0.2 0.1 -1
v -0.4 0.1 -1.6
v -0.2 0.1 -1.6
v 0.2 0.1 -1.6
v 0.4 0.1 -1.6
v -0.2 0.1 -1.8
v 0.2 0.1 -1.8

# faces
f 3/5/1 2/5/1 1/5/1
f 4/5/1 2/5/1 3/5/1
f 9/5/1 6/5/1 5/5/1
f 10/5/1 6/5/1 9/5/1
f 11/5/1 8/5/1 7/5/1
f 12/5/1 8/5/1 11/5/1
f 13/5/2 14/5/2 17/5/2
f 17/5/2 14/5/2 18/5/2
f 15/5/2 16/5/2 19/5/2
f 19/5/2 16/5/2 20/5/2
f 21/5/2 22/5/2 23/5/2
f 23/5/2 22/5/2 24/5/2
f 27/5/3 26/5/3 25/5/3
f 28/5/3 26/5/3 27/5/3
f 31/5/3 30/5/3 29/5/3
f 32/5/3 30/5/3 31/5/3
f 35/5/3 34/5/3 33/5/3
f 36/5/3 34/5/3 35/5/3
f 37/5/4 38/5/4 39/5/4
f 39/5/4 38/5/4 40/5/4
f 41/5/4 42/5/4 43/5/4
f 43/5/4 42/5/4 44/5/4
f 45/5/4 46/5/4 47/5/4
f 47/5/4 46/5/4 48/5/4
f 52/5/5 50/5/5 49/5/5
f 53/5/5 50/5/5 52/5/5
f 55/5/5 52/5/5 51/5/5
f 55/4/5 53/4/5 52/4/5
f 56/5/5 54/5/5 53/5/5
f 56/4/5 53/4/5 55/4/5
f 57/5/5 55/5/5 51/5/5
f 57/3/5 56/3/5 55/3/5
f 58/5/5 54/5/5 56/5/5
f 58/3/5 56/3/5 57/3/5
f 59/5/5 57/5/5 51/5/5
f 59/2/5 58/2/5 57/2/5
f 60/5/5 54/5/5 58/5/5
f 60/2/5 58/2/5 59/2/5
f 61/5/5 59/5/5 51/5/5
f 61/1/5 60/1/5 59/1/5
f 62/5/5 54/5/5 60/5/5
f 62/1/5 60/1/5 61/1/5
f 63/5/5 61/5/5 51/5/5
f 63/2/5 62/2/5 61/2/5
f 64/5/5 54/5/5 62/5/5
f 64/2/5 62/2/5 63/2/5
f 65/5/5 63/5/5 51/5/5
f 65/3/5 64/3/5 63/3/5
f 66/5/5 54/5/5 64/5/5
f 66/3/5 64/3/5 65/3/5
f 67/5/5 65/5/5 51/5/5
f 68/4/5 66/4/5 65/4/5
f 68/5/5 65/5/5 67/5/5
f 69/5/5 54/5/5 66/5/5
f 69/4/5 66/4/5 68/4/5
f 70/5/5 54/5/5 69/5/5
f 71/5/5 69/5/5 68/5/5
f 72/5/5 69/5/5 71/5/5
f 73/5/6 74/5/6 76/5/6
f 76/5/6 74/5/6 77/5/6
f 75/5/6 76/5/6 79/5/6
f 76/4/6 77/4/6 79/4/6
f 77/5/6 78/5/6 80/5/6
f 79/4/6 77/4/6 80/4/6
f 75/5/6 79/5/6 81/5/6
f 79/3/6 80/3/6 81/3/6
f 80/5/6 78/5/6 82/5/6
f 81/3/6 80/3/6 82/3/6
f 75/5/6 81/5/6 83/5/6
f 81/2/6 82/2/6 83/2/6
f 82/5/6 78/5/6 84/5/6
f 83/2/6 82/2/6 84/2/6
f 75/5/6 83/5/6 85/5/6
f 83/1/6 84/1/6 85/1/6
f 84/5/6 78/5/6 86/5/6
f 85/1/6 84/1/6 86/1/6
f 75/5/6 85/5/6 87/5/6
f 85/2/6 86/2/6 87/2/6
f 86/5/6 78/5/6 88/5/6
f 87/2/6 86/2/6 88/2/6
f 75/5/6 87/5/6 89/5/6
f 87/3/6 88/3/6 89/3/6
f 88/5/6 78/5/6 90/5/6
f 89/3/6 88/3/6 90/3/6
f 75/5/6 89/5/6 91/5/6
f 89/4/6 90/4/6 92/4/6
f 91/5/6 89/5/6 92/5/6
f 90/5/6 78/5/6 93/5/6
f 92/4/6 90/4/6 93/4/6
f 93/5/6 78/5/6 94/5/6
f 92/5/6 93/5/6 95/5/6
f 95/5/6 93/5/6 96/5/6
